<svg xmlns="http://www.w3.org/2000/svg" viewBox="0 0 512 512" width="512" height="512">
  <rect width="512" height="512" fill="#FEFCF7"/>
  <path d="M216 168v148a72 72 0 0 0 144 0V148a48 48 0 0 0-96 0v164a24 24 0 0 0 48 0V180"
        fill="none" stroke="#FDC8D0" stroke-width="34" stroke-linecap="round" stroke-linejoin="round"/>
  <path d="M216 168v148a72 72 0 0 0 144 0V148a48 48 0 0 0-96 0v164a24 24 0 0 0 48 0V180"
        fill="none" stroke="#442531" stroke-width="10" stroke-linecap="round" stroke-linejoin="round"/>
  <circle cx="216" cy="168" r="18" fill="#BFE0F0" stroke="#442531" stroke-width="6"/>
</svg>
